<?xml version="1.0" standalone="no"?>
<!DOCTYPE svg PUBLIC "-//W3C//DTD SVG 20010904//EN"
 "http://www.w3.org/TR/2001/REC-SVG-20010904/DTD/svg10.dtd">
<svg version="1.0" xmlns="http://www.w3.org/2000/svg"
 width="40.000000pt" height="26.000000pt" viewBox="0 0 40.000000 26.000000"
 preserveAspectRatio="xMidYMid meet">

<g transform="translate(0.000000,26.000000) scale(0.100000,-0.100000)"
fill="#000000" stroke="none">
<path d="M270 217 c0 -16 -9 -26 -30 -34 -38 -14 -42 -54 -7 -70 41 -19 57 0
57 67 0 33 -4 60 -10 60 -5 0 -10 -10 -10 -23z m0 -73 c0 -17 -26 -19 -36 -3
-7 12 15 31 28 23 4 -3 8 -12 8 -20z"/>
<path d="M17 179 c-10 -6 -17 -22 -17 -40 0 -18 4 -28 10 -24 5 3 10 14 10 25
0 18 23 34 34 23 3 -4 6 -15 6 -25 0 -10 5 -18 10 -18 14 0 13 43 -2 58 -14
14 -27 15 -51 1z"/>
<path d="M122 178 c-33 -33 3 -84 45 -65 29 13 31 52 4 67 -25 13 -34 13 -49
-2z"/>
<path d="M332 178 c-29 -29 -8 -69 36 -67 13 0 11 3 -5 11 -13 6 -23 17 -23
24 0 19 21 29 30 14 4 -7 13 -9 20 -5 10 6 9 11 -5 22 -23 16 -37 17 -53 1z"/>
</g>
</svg>
